<?xml version="1.0" encoding="UTF-8"?>
<svg version="1.1" viewBox="0 0 1296 1736" width="324" height="434" xmlns="http://www.w3.org/2000/svg">
<path transform="translate(656,2)" d="m0 0h13l6 4 11 33 8 16 10 16 13 17 9 14 12 21 12 26 10 25 11 31 4 17 2 23 2 7v44l-4 23-9 30-12 30-12 20-12 18-10 11-9 11-12 13-12 11-13 10-16 8-12 4-7 12-12 36-9 35-16 52-5 20-2 15v17l4 27 6 36 5 33 5 32 2 15 2 10 3-1 4-13 2-9 2-5v-14l4-21 2-17 12-48 11-37 7-20 13-29 22-44 14-23 7-10 9-14 11-14 10-11 9-11 11-11 1-2h2l2-4 6-5 7-8 38-38 17-13 14-12 8-7 11-8 15-12 13-10 9-9 11-14 8-9 7-9 8-9 7-5h16l4 4 2 9v16l-1 19v18l8 64 1 15 1 5 1 14v54l-4 30-6 26-12 36-8 20-5 12-7 15-9 15-9 13-11 17-14 19-9 12-14 15-28 28-11 9-30 23-17 14-17 12-19 12-24 13-6 5-1 4 2 7 132 1 3 2 19 1 7-2 3-3 2-10v-11l-1-13 1-5 1-14 8-32 7-19 18-36 9-15 12-16 15-16 11-10 20-15 13-10 14-9 15-8 16-8 10-4 23-5 8-4 14-3 2-4 1-4v-8l-7-14-9-17-10-24-7-24-7-25-2-13v-61l3-16 6-20 9-22 11-20 10-14 9-10 17-17 14-10 12-8 14-10 21-13 12-9 6-5 7-8 8-9 13-17 7-11 13-24 4-5 9-7h10l5 3 4 6 1 8-1 22-3 25-1 13-2 59-2 8-5 35-3 16-8 36-8 31-5 18-9 20-9 17-10 15-9 11-7 9-9 10-10 12-20 15-21 14-7 6-1 2v11l4 6 3 3 6 1h13l14-4 16-6 12-3h8l7 4 4 4 1 3v16l-9 27-9 30-10 29-7 20-10 24-8 16-15 27-13 18-9 11-12 13-18 18-11 9-16 12-15 10-8 5-8 4-3 3-1 4 7 11 10 11 9 15 4 10 2 8 1 10-1 13-5 25-5 15-8 16-8 14-7 14-4 15-3 42-2 38-1 16-2 5-2 31-2 21-4 28-3 42-2 18-1 14-2 10-4 31-4 38-3 24-2 7v10l-5 33-2 6-4 30-7 34-13 52-14 43-10 24-11 21-10 14-9 10-10 10-11 7-16 6-7 2h-10l-20 3h-57l-14-2h-312l-34 1h-33l-5-2h-9l-20-5-12-6-10-8-9-12-11-17-9-17-11-26-12-36-12-40-9-40-4-24-4-21-6-49-4-28-3-18-3-39-1-31-2-4-2-31-2-13-1-40-1-22-1-3-1-12-1-37-2-24-2-12-1-23-4-25-6-16-13-31-4-13v-34l5-25 8-16 7-9 8-8 14-9 12-7 4-4 1-5-3-5-19-10-13-6-19-7-14-9-11-9-10-8-10-6-10-8-14-14-11-9-9-9-18-27-10-14-13-21-19-38-10-27-7-18-5-17v-6l6-12 4-1 8 1h7l12 6 13 3 6 2 23 4 11 2h30l8 4h9l6 3 10 1 5 2 16 4 14 5 16 5 15 5 20 10 19 10 10 6 16 13 15 14 13 15 15 20 14 21 8 16 9 20 6 16 3 13 6 39 5 12 9 2 31-1 5-1 35-2 9-3h11l3-2 68-1 5-3 2-4-1-6-7-11-12-13-16-12-16-10-10-6-19-10-20-11-41-24-16-12-32-26-12-9-7-7-4-3v-2h-2l-7-8-12-11-17-17-12-17-13-21-12-23-10-26-6-21-5-25-5-16-6-8h-4l-12 36-10 24-10 21-5 6-9 5h-15l-12-4-19-10-9-7-8-6-11-8-7-7-9-7-11-11-7-9-12-14-9-9-9-11-12-15-14-21-11-19-10-22-7-20-7-25-6-21-5-19-6-41-3-25-2-38 1-70 4-6 5-4 9-1 7 4 10 9 11 14 11 12 12 12 14 10 27 15 26 16 23 13 14 9 13 10 34 34 7 8 10 15 9 14 8 20 10 30 2 4 5-1 4-7 1-7v-16l-1-13v-29l1-9 7-14 3-2h13l8 5 26 26 7 8 9 10 18 14 17 10 14 7 12 9h18l4-5 1-6-3-10-6-9-6-8-11-9-15-12-7-8-9-8-8-6-7-7-8-7-11-10-9-7-10-9-11-12-9-11-10-12-12-19-9-17-8-20-8-27-6-27-3-18-2-18v-13l6-8 5-3h9l10 5 12 9 16 9 24 9h9l8 4 7-1 7 4h8l6 3 12 3 9 4 20 11 9 9 13 10 10 9 8 11 11 15 12 23 5 15 5 23 2 11 1 23v43l-3 13-7 28-9 24-5 11-5 14v12l5 6 11 9 8 8 7 6 11 14 11 12 11 15 16 28 8 13 9 17 8 19 5 7 3 1 6-8 8-27 4-15 10-28 5-13 1-4v-11l-4-13-7-16-11-18-12-23-8-17-12-34-8-29-2-13-1-9-4-26v-46l5-25 6-31 4-17 6-21 12-26 12-20 10-15 11-17 12-15 7-8 10-13 9-12 8-4zm7 902-58 2-69 2-92 4-155 9-22 3-8 3-11 8-7 7-8 14-3 9-1 7v23l3 13 8 15 9 10 4 3 3 1 52 2 95 7 50 3 60 2 56 1h66l54-1 59-2 74-4 49-4 56-6 60-7 37-3 5-5 9-17 8-22 4-22v-13l-3-11-6-9-7-6-6-2-19-2-91-6-102-5-25-1zm343 157-80 9-86 8-74 5-46 2-66 1h-117l-59-2-69-4-74-5-71-5-3 1v22l6 129 5 68 8 84 9 68 7 43 7 36 10 45 10 37 9 27 10 23 9 16 9 12 9 10 10 7 7 3 7 1h470l16-6 11-6 11-9 10-13 9-15 8-20 10-28 6-20 11-47 9-46 9-53 10-78 7-65 6-52 5-48 5-46 4-53 1-17v-19z" fill="#8E6C41"/>
<path transform="translate(724,1321)" d="m0 0h6l9 6 4 6 2 8v24l-3 17-4 13-5 10-8 11-8 9-8 7-14 9-16 6-19 4h-30l-12-3-16-6-16-10-12-11-11-15-8-14-5-15-2-9v-21l4-9 8-5 9 1 7 6 5 10 1 14 3 11 7 13 8 10 9 7 16 8 9 3h25l21-7 11-7 6-5 1-2h2l8-16 3-14 1-29 2-7 8-7z" fill="#8F6D43"/>
<path transform="translate(502,1205)" d="m0 0 8 1 5 3 5 8 1 10-5 17-7 16-9 14-9 10-12 9-10 4-15 3h-15l-15-4-15-8-10-9-10-14-8-18-3-13 1-10 4-8 7-4 8 1 6 4 6 9 6 15 6 11 8 9 11 4h13l12-5 6-5 7-11 5-13 5-16 7-8z" fill="#906E44"/>
<path transform="translate(887,1206)" d="m0 0h10l6 3 4 5 2 5v14l-4 18-8 16-9 11-10 9-17 8-12 3-9 1h-11l-12-3-14-7-9-7-8-8-10-15-6-14-1-5v-10l3-8 5-5 2-1h8l6 4 5 8 8 16 7 9 8 7 7 3 5 1h12l9-2 9-7 5-6 5-12 5-20 3-6z" fill="#8F6E44"/>
<path transform="translate(465,1729)" d="m0 0h298l17 1 5 1v1h-351v-1l5-1z" fill="#FDFDFD"/>
<path transform="translate(1286,162)" d="m0 0 4 2 4 6 1 8-1 22h-1l-1-23-3-10z" fill="#FDFDFD"/>
</svg>
